ISO-10303-21;
HEADER;
/* Generated by software containing ST-Developer
 * from STEP Tools, Inc. (www.steptools.com) 
 */
/* OPTION: using custom renumber hook */

FILE_DESCRIPTION(
/* description */ ('STEP AP242 Edition 2',
'CAx-IF Rec.Pracs.---Representation and Presentation of Product Manufa
cturing Information (PMI)---4.0---2014-10-13',
'CAx-IF Rec.Pracs.---3D Tessellated Geometry---0.4---2014-09-14','2;1',
'CAx-IF Rec.Pracs.---User Defined Attributes---1.5---2016-08-15'),
/* implementation_level */ '2;1');

FILE_NAME(
/* name */ 'Bottom - Part 1',
/* time_stamp */ '2026-08-15T11:22:34Z',
/* author */ (''),
/* organization */ (''),
/* preprocessor_version */ 'ST-DEVELOPER v20',
/* originating_system */ 'ONSHAPE BY PTC INC, 1.219',
/* authorisation */ '  ');

FILE_SCHEMA (('AP242_MANAGED_MODEL_BASED_3D_ENGINEERING_MIM_LF { 1 0 10303 442 3 1 4 }'));
ENDSEC;

DATA;
#10=SHAPE_REPRESENTATION_RELATIONSHIP('','',#859,#11);
#11=ADVANCED_BREP_SHAPE_REPRESENTATION('',(#857),#1417);
#12=CYLINDRICAL_SURFACE('',#891,0.0015);
#13=CYLINDRICAL_SURFACE('',#894,0.0015);
#14=CYLINDRICAL_SURFACE('',#897,0.0015);
#15=CYLINDRICAL_SURFACE('',#900,0.0015);
#16=CYLINDRICAL_SURFACE('',#909,0.0025);
#17=CYLINDRICAL_SURFACE('',#910,0.0025);
#18=CYLINDRICAL_SURFACE('',#911,0.0025);
#19=CYLINDRICAL_SURFACE('',#912,0.0025);
#20=CYLINDRICAL_SURFACE('',#923,0.00285);
#21=CYLINDRICAL_SURFACE('',#926,0.00285);
#22=CYLINDRICAL_SURFACE('',#929,0.00285);
#23=CYLINDRICAL_SURFACE('',#932,0.00285);
#24=CYLINDRICAL_SURFACE('',#935,0.002);
#25=CYLINDRICAL_SURFACE('',#936,0.002);
#26=CYLINDRICAL_SURFACE('',#937,0.002);
#27=CYLINDRICAL_SURFACE('',#938,0.002);
#28=CIRCLE('',#863,0.002);
#29=CIRCLE('',#864,0.002);
#30=CIRCLE('',#867,0.00285);
#31=CIRCLE('',#868,0.00285);
#32=CIRCLE('',#869,0.00285);
#33=CIRCLE('',#870,0.00285);
#34=CIRCLE('',#871,0.0025);
#35=CIRCLE('',#872,0.0025);
#36=CIRCLE('',#873,0.0025);
#37=CIRCLE('',#874,0.0025);
#38=CIRCLE('',#881,0.002);
#39=CIRCLE('',#882,0.002);
#40=CIRCLE('',#886,0.002);
#41=CIRCLE('',#887,0.002);
#42=CIRCLE('',#888,0.002);
#43=CIRCLE('',#889,0.002);
#44=CIRCLE('',#892,0.0015);
#45=CIRCLE('',#893,0.0015);
#46=CIRCLE('',#895,0.0015);
#47=CIRCLE('',#896,0.0015);
#48=CIRCLE('',#898,0.0015);
#49=CIRCLE('',#899,0.0015);
#50=CIRCLE('',#901,0.0015);
#51=CIRCLE('',#902,0.0015);
#52=CIRCLE('',#905,0.0025);
#53=CIRCLE('',#906,0.0025);
#54=CIRCLE('',#907,0.0025);
#55=CIRCLE('',#908,0.0025);
#56=CIRCLE('',#924,0.00285);
#57=CIRCLE('',#927,0.00285);
#58=CIRCLE('',#930,0.00285);
#59=CIRCLE('',#933,0.00285);
#60=ORIENTED_EDGE('',*,*,#284,.F.);
#61=ORIENTED_EDGE('',*,*,#285,.T.);
#62=ORIENTED_EDGE('',*,*,#286,.T.);
#63=ORIENTED_EDGE('',*,*,#287,.T.);
#64=ORIENTED_EDGE('',*,*,#288,.F.);
#65=ORIENTED_EDGE('',*,*,#289,.T.);
#66=ORIENTED_EDGE('',*,*,#290,.T.);
#67=ORIENTED_EDGE('',*,*,#291,.T.);
#68=ORIENTED_EDGE('',*,*,#292,.F.);
#69=ORIENTED_EDGE('',*,*,#293,.F.);
#70=ORIENTED_EDGE('',*,*,#294,.T.);
#71=ORIENTED_EDGE('',*,*,#295,.T.);
#72=ORIENTED_EDGE('',*,*,#296,.F.);
#73=ORIENTED_EDGE('',*,*,#297,.T.);
#74=ORIENTED_EDGE('',*,*,#298,.F.);
#75=ORIENTED_EDGE('',*,*,#299,.F.);
#76=ORIENTED_EDGE('',*,*,#300,.T.);
#77=ORIENTED_EDGE('',*,*,#301,.T.);
#78=ORIENTED_EDGE('',*,*,#287,.F.);
#79=ORIENTED_EDGE('',*,*,#302,.T.);
#80=ORIENTED_EDGE('',*,*,#303,.T.);
#81=ORIENTED_EDGE('',*,*,#304,.F.);
#82=ORIENTED_EDGE('',*,*,#295,.F.);
#83=ORIENTED_EDGE('',*,*,#305,.F.);
#84=ORIENTED_EDGE('',*,*,#306,.T.);
#85=ORIENTED_EDGE('',*,*,#307,.T.);
#86=ORIENTED_EDGE('',*,*,#308,.F.);
#87=ORIENTED_EDGE('',*,*,#309,.F.);
#88=ORIENTED_EDGE('',*,*,#310,.T.);
#89=ORIENTED_EDGE('',*,*,#311,.T.);
#90=ORIENTED_EDGE('',*,*,#291,.F.);
#91=ORIENTED_EDGE('',*,*,#312,.T.);
#92=ORIENTED_EDGE('',*,*,#313,.T.);
#93=ORIENTED_EDGE('',*,*,#314,.F.);
#94=ORIENTED_EDGE('',*,*,#315,.T.);
#95=ORIENTED_EDGE('',*,*,#316,.T.);
#96=ORIENTED_EDGE('',*,*,#317,.T.);
#97=ORIENTED_EDGE('',*,*,#318,.T.);
#98=ORIENTED_EDGE('',*,*,#319,.F.);
#99=ORIENTED_EDGE('',*,*,#320,.T.);
#100=ORIENTED_EDGE('',*,*,#321,.F.);
#101=ORIENTED_EDGE('',*,*,#322,.T.);
#102=ORIENTED_EDGE('',*,*,#323,.T.);
#103=ORIENTED_EDGE('',*,*,#324,.T.);
#104=ORIENTED_EDGE('',*,*,#325,.T.);
#105=ORIENTED_EDGE('',*,*,#326,.T.);
#106=ORIENTED_EDGE('',*,*,#327,.T.);
#107=ORIENTED_EDGE('',*,*,#305,.T.);
#108=ORIENTED_EDGE('',*,*,#294,.F.);
#109=ORIENTED_EDGE('',*,*,#328,.F.);
#110=ORIENTED_EDGE('',*,*,#310,.F.);
#111=ORIENTED_EDGE('',*,*,#329,.F.);
#112=ORIENTED_EDGE('',*,*,#330,.T.);
#113=ORIENTED_EDGE('',*,*,#331,.T.);
#114=ORIENTED_EDGE('',*,*,#306,.F.);
#115=ORIENTED_EDGE('',*,*,#327,.F.);
#116=ORIENTED_EDGE('',*,*,#332,.T.);
#117=ORIENTED_EDGE('',*,*,#333,.T.);
#118=ORIENTED_EDGE('',*,*,#311,.F.);
#119=ORIENTED_EDGE('',*,*,#331,.F.);
#120=ORIENTED_EDGE('',*,*,#334,.T.);
#121=ORIENTED_EDGE('',*,*,#292,.T.);
#122=ORIENTED_EDGE('',*,*,#335,.F.);
#123=ORIENTED_EDGE('',*,*,#336,.T.);
#124=ORIENTED_EDGE('',*,*,#300,.F.);
#125=ORIENTED_EDGE('',*,*,#337,.F.);
#126=ORIENTED_EDGE('',*,*,#329,.T.);
#127=ORIENTED_EDGE('',*,*,#309,.T.);
#128=ORIENTED_EDGE('',*,*,#338,.F.);
#129=ORIENTED_EDGE('',*,*,#339,.T.);
#130=ORIENTED_EDGE('',*,*,#340,.F.);
#131=ORIENTED_EDGE('',*,*,#341,.T.);
#132=ORIENTED_EDGE('',*,*,#342,.T.);
#133=ORIENTED_EDGE('',*,*,#343,.T.);
#134=ORIENTED_EDGE('',*,*,#338,.T.);
#135=ORIENTED_EDGE('',*,*,#308,.T.);
#136=ORIENTED_EDGE('',*,*,#298,.T.);
#137=ORIENTED_EDGE('',*,*,#344,.T.);
#138=ORIENTED_EDGE('',*,*,#345,.T.);
#139=ORIENTED_EDGE('',*,*,#346,.T.);
#140=ORIENTED_EDGE('',*,*,#340,.T.);
#141=ORIENTED_EDGE('',*,*,#307,.F.);
#142=ORIENTED_EDGE('',*,*,#333,.F.);
#143=ORIENTED_EDGE('',*,*,#347,.T.);
#144=ORIENTED_EDGE('',*,*,#323,.F.);
#145=ORIENTED_EDGE('',*,*,#348,.T.);
#146=ORIENTED_EDGE('',*,*,#349,.T.);
#147=ORIENTED_EDGE('',*,*,#350,.T.);
#148=ORIENTED_EDGE('',*,*,#351,.F.);
#149=ORIENTED_EDGE('',*,*,#352,.T.);
#150=ORIENTED_EDGE('',*,*,#345,.F.);
#151=ORIENTED_EDGE('',*,*,#353,.T.);
#152=ORIENTED_EDGE('',*,*,#354,.T.);
#153=ORIENTED_EDGE('',*,*,#355,.T.);
#154=ORIENTED_EDGE('',*,*,#335,.T.);
#155=ORIENTED_EDGE('',*,*,#356,.T.);
#156=ORIENTED_EDGE('',*,*,#321,.T.);
#157=ORIENTED_EDGE('',*,*,#357,.T.);
#158=ORIENTED_EDGE('',*,*,#358,.F.);
#159=ORIENTED_EDGE('',*,*,#359,.T.);
#160=ORIENTED_EDGE('',*,*,#360,.F.);
#161=ORIENTED_EDGE('',*,*,#361,.T.);
#162=ORIENTED_EDGE('',*,*,#319,.T.);
#163=ORIENTED_EDGE('',*,*,#362,.T.);
#164=ORIENTED_EDGE('',*,*,#363,.F.);
#165=ORIENTED_EDGE('',*,*,#364,.T.);
#166=ORIENTED_EDGE('',*,*,#365,.F.);
#167=ORIENTED_EDGE('',*,*,#366,.T.);
#168=ORIENTED_EDGE('',*,*,#367,.F.);
#169=ORIENTED_EDGE('',*,*,#368,.T.);
#170=ORIENTED_EDGE('',*,*,#369,.F.);
#171=ORIENTED_EDGE('',*,*,#370,.T.);
#172=ORIENTED_EDGE('',*,*,#325,.F.);
#173=ORIENTED_EDGE('',*,*,#371,.T.);
#174=ORIENTED_EDGE('',*,*,#372,.T.);
#175=ORIENTED_EDGE('',*,*,#373,.T.);
#176=ORIENTED_EDGE('',*,*,#358,.T.);
#177=ORIENTED_EDGE('',*,*,#374,.T.);
#178=ORIENTED_EDGE('',*,*,#360,.T.);
#179=ORIENTED_EDGE('',*,*,#375,.T.);
#180=ORIENTED_EDGE('',*,*,#372,.F.);
#181=ORIENTED_EDGE('',*,*,#376,.T.);
#182=ORIENTED_EDGE('',*,*,#349,.F.);
#183=ORIENTED_EDGE('',*,*,#377,.T.);
#184=ORIENTED_EDGE('',*,*,#370,.F.);
#185=ORIENTED_EDGE('',*,*,#368,.F.);
#186=ORIENTED_EDGE('',*,*,#366,.F.);
#187=ORIENTED_EDGE('',*,*,#364,.F.);
#188=ORIENTED_EDGE('',*,*,#293,.T.);
#189=ORIENTED_EDGE('',*,*,#334,.F.);
#190=ORIENTED_EDGE('',*,*,#330,.F.);
#191=ORIENTED_EDGE('',*,*,#337,.T.);
#192=ORIENTED_EDGE('',*,*,#299,.T.);
#193=ORIENTED_EDGE('',*,*,#347,.F.);
#194=ORIENTED_EDGE('',*,*,#332,.F.);
#195=ORIENTED_EDGE('',*,*,#328,.T.);
#196=ORIENTED_EDGE('',*,*,#374,.F.);
#197=ORIENTED_EDGE('',*,*,#357,.F.);
#198=ORIENTED_EDGE('',*,*,#320,.F.);
#199=ORIENTED_EDGE('',*,*,#361,.F.);
#200=ORIENTED_EDGE('',*,*,#377,.F.);
#201=ORIENTED_EDGE('',*,*,#348,.F.);
#202=ORIENTED_EDGE('',*,*,#322,.F.);
#203=ORIENTED_EDGE('',*,*,#359,.F.);
#204=ORIENTED_EDGE('',*,*,#376,.F.);
#205=ORIENTED_EDGE('',*,*,#371,.F.);
#206=ORIENTED_EDGE('',*,*,#324,.F.);
#207=ORIENTED_EDGE('',*,*,#350,.F.);
#208=ORIENTED_EDGE('',*,*,#375,.F.);
#209=ORIENTED_EDGE('',*,*,#362,.F.);
#210=ORIENTED_EDGE('',*,*,#326,.F.);
#211=ORIENTED_EDGE('',*,*,#373,.F.);
#212=ORIENTED_EDGE('',*,*,#351,.T.);
#213=ORIENTED_EDGE('',*,*,#378,.T.);
#214=ORIENTED_EDGE('',*,*,#342,.F.);
#215=ORIENTED_EDGE('',*,*,#379,.T.);
#216=ORIENTED_EDGE('',*,*,#296,.T.);
#217=ORIENTED_EDGE('',*,*,#380,.T.);
#218=ORIENTED_EDGE('',*,*,#354,.F.);
#219=ORIENTED_EDGE('',*,*,#381,.T.);
#220=ORIENTED_EDGE('',*,*,#289,.F.);
#221=ORIENTED_EDGE('',*,*,#382,.T.);
#222=ORIENTED_EDGE('',*,*,#383,.F.);
#223=ORIENTED_EDGE('',*,*,#384,.F.);
#224=ORIENTED_EDGE('',*,*,#385,.T.);
#225=ORIENTED_EDGE('',*,*,#312,.F.);
#226=ORIENTED_EDGE('',*,*,#290,.F.);
#227=ORIENTED_EDGE('',*,*,#384,.T.);
#228=ORIENTED_EDGE('',*,*,#386,.T.);
#229=ORIENTED_EDGE('',*,*,#313,.F.);
#230=ORIENTED_EDGE('',*,*,#385,.F.);
#231=ORIENTED_EDGE('',*,*,#383,.T.);
#232=ORIENTED_EDGE('',*,*,#314,.T.);
#233=ORIENTED_EDGE('',*,*,#386,.F.);
#234=ORIENTED_EDGE('',*,*,#382,.F.);
#235=ORIENTED_EDGE('',*,*,#288,.T.);
#236=ORIENTED_EDGE('',*,*,#285,.F.);
#237=ORIENTED_EDGE('',*,*,#387,.T.);
#238=ORIENTED_EDGE('',*,*,#388,.F.);
#239=ORIENTED_EDGE('',*,*,#389,.F.);
#240=ORIENTED_EDGE('',*,*,#390,.T.);
#241=ORIENTED_EDGE('',*,*,#302,.F.);
#242=ORIENTED_EDGE('',*,*,#286,.F.);
#243=ORIENTED_EDGE('',*,*,#389,.T.);
#244=ORIENTED_EDGE('',*,*,#391,.T.);
#245=ORIENTED_EDGE('',*,*,#303,.F.);
#246=ORIENTED_EDGE('',*,*,#390,.F.);
#247=ORIENTED_EDGE('',*,*,#388,.T.);
#248=ORIENTED_EDGE('',*,*,#304,.T.);
#249=ORIENTED_EDGE('',*,*,#391,.F.);
#250=ORIENTED_EDGE('',*,*,#387,.F.);
#251=ORIENTED_EDGE('',*,*,#284,.T.);
#252=ORIENTED_EDGE('',*,*,#392,.T.);
#253=ORIENTED_EDGE('',*,*,#318,.F.);
#254=ORIENTED_EDGE('',*,*,#369,.T.);
#255=ORIENTED_EDGE('',*,*,#392,.F.);
#256=ORIENTED_EDGE('',*,*,#393,.T.);
#257=ORIENTED_EDGE('',*,*,#317,.F.);
#258=ORIENTED_EDGE('',*,*,#367,.T.);
#259=ORIENTED_EDGE('',*,*,#393,.F.);
#260=ORIENTED_EDGE('',*,*,#394,.T.);
#261=ORIENTED_EDGE('',*,*,#316,.F.);
#262=ORIENTED_EDGE('',*,*,#365,.T.);
#263=ORIENTED_EDGE('',*,*,#394,.F.);
#264=ORIENTED_EDGE('',*,*,#395,.T.);
#265=ORIENTED_EDGE('',*,*,#315,.F.);
#266=ORIENTED_EDGE('',*,*,#363,.T.);
#267=ORIENTED_EDGE('',*,*,#395,.F.);
#268=ORIENTED_EDGE('',*,*,#301,.F.);
#269=ORIENTED_EDGE('',*,*,#336,.F.);
#270=ORIENTED_EDGE('',*,*,#355,.F.);
#271=ORIENTED_EDGE('',*,*,#380,.F.);
#272=ORIENTED_EDGE('',*,*,#297,.F.);
#273=ORIENTED_EDGE('',*,*,#381,.F.);
#274=ORIENTED_EDGE('',*,*,#353,.F.);
#275=ORIENTED_EDGE('',*,*,#344,.F.);
#276=ORIENTED_EDGE('',*,*,#343,.F.);
#277=ORIENTED_EDGE('',*,*,#378,.F.);
#278=ORIENTED_EDGE('',*,*,#356,.F.);
#279=ORIENTED_EDGE('',*,*,#339,.F.);
#280=ORIENTED_EDGE('',*,*,#341,.F.);
#281=ORIENTED_EDGE('',*,*,#346,.F.);
#282=ORIENTED_EDGE('',*,*,#352,.F.);
#283=ORIENTED_EDGE('',*,*,#379,.F.);
#284=EDGE_CURVE('',#396,#397,#476,.T.);
#285=EDGE_CURVE('',#396,#398,#477,.T.);
#286=EDGE_CURVE('',#398,#399,#478,.T.);
#287=EDGE_CURVE('',#399,#400,#479,.T.);
#288=EDGE_CURVE('',#401,#400,#480,.T.);
#289=EDGE_CURVE('',#401,#402,#481,.T.);
#290=EDGE_CURVE('',#402,#403,#482,.T.);
#291=EDGE_CURVE('',#403,#404,#483,.T.);
#292=EDGE_CURVE('',#405,#404,#484,.T.);
#293=EDGE_CURVE('',#406,#405,#485,.T.);
#294=EDGE_CURVE('',#406,#407,#486,.T.);
#295=EDGE_CURVE('',#407,#397,#487,.T.);
#296=EDGE_CURVE('',#408,#409,#488,.T.);
#297=EDGE_CURVE('',#408,#410,#28,.T.);
#298=EDGE_CURVE('',#411,#410,#489,.T.);
#299=EDGE_CURVE('',#412,#411,#490,.T.);
#300=EDGE_CURVE('',#412,#413,#491,.T.);
#301=EDGE_CURVE('',#413,#409,#29,.T.);
#302=EDGE_CURVE('',#399,#414,#492,.T.);
#303=EDGE_CURVE('',#414,#415,#493,.T.);
#304=EDGE_CURVE('',#397,#415,#494,.T.);
#305=EDGE_CURVE('',#416,#407,#495,.T.);
#306=EDGE_CURVE('',#416,#417,#496,.T.);
#307=EDGE_CURVE('',#417,#418,#497,.T.);
#308=EDGE_CURVE('',#419,#418,#498,.T.);
#309=EDGE_CURVE('',#420,#419,#499,.T.);
#310=EDGE_CURVE('',#420,#421,#500,.T.);
#311=EDGE_CURVE('',#421,#404,#501,.T.);
#312=EDGE_CURVE('',#403,#422,#502,.T.);
#313=EDGE_CURVE('',#422,#423,#503,.T.);
#314=EDGE_CURVE('',#400,#423,#504,.T.);
#315=EDGE_CURVE('',#424,#424,#30,.T.);
#316=EDGE_CURVE('',#425,#425,#31,.T.);
#317=EDGE_CURVE('',#426,#426,#32,.T.);
#318=EDGE_CURVE('',#427,#427,#33,.T.);
#319=EDGE_CURVE('',#428,#429,#505,.T.);
#320=EDGE_CURVE('',#428,#430,#34,.F.);
#321=EDGE_CURVE('',#431,#430,#506,.T.);
#322=EDGE_CURVE('',#431,#432,#35,.F.);
#323=EDGE_CURVE('',#432,#433,#507,.T.);
#324=EDGE_CURVE('',#433,#434,#36,.F.);
#325=EDGE_CURVE('',#434,#435,#508,.T.);
#326=EDGE_CURVE('',#435,#429,#37,.F.);
#327=EDGE_CURVE('',#436,#416,#509,.T.);
#328=EDGE_CURVE('',#436,#406,#510,.T.);
#329=EDGE_CURVE('',#437,#420,#511,.T.);
#330=EDGE_CURVE('',#437,#438,#512,.T.);
#331=EDGE_CURVE('',#438,#421,#513,.T.);
#332=EDGE_CURVE('',#436,#439,#514,.T.);
#333=EDGE_CURVE('',#439,#417,#515,.T.);
#334=EDGE_CURVE('',#438,#405,#516,.T.);
#335=EDGE_CURVE('',#440,#441,#517,.T.);
#336=EDGE_CURVE('',#440,#413,#518,.F.);
#337=EDGE_CURVE('',#437,#412,#519,.T.);
#338=EDGE_CURVE('',#442,#419,#520,.T.);
#339=EDGE_CURVE('',#442,#441,#521,.T.);
#340=EDGE_CURVE('',#443,#418,#522,.T.);
#341=EDGE_CURVE('',#443,#444,#38,.T.);
#342=EDGE_CURVE('',#444,#445,#523,.T.);
#343=EDGE_CURVE('',#445,#442,#39,.T.);
#344=EDGE_CURVE('',#410,#446,#524,.T.);
#345=EDGE_CURVE('',#446,#447,#525,.T.);
#346=EDGE_CURVE('',#447,#443,#526,.F.);
#347=EDGE_CURVE('',#439,#411,#527,.T.);
#348=EDGE_CURVE('',#432,#448,#528,.F.);
#349=EDGE_CURVE('',#448,#449,#529,.T.);
#350=EDGE_CURVE('',#449,#433,#530,.T.);
#351=EDGE_CURVE('',#450,#451,#531,.T.);
#352=EDGE_CURVE('',#450,#447,#40,.T.);
#353=EDGE_CURVE('',#446,#452,#41,.T.);
#354=EDGE_CURVE('',#452,#453,#532,.T.);
#355=EDGE_CURVE('',#453,#440,#42,.T.);
#356=EDGE_CURVE('',#441,#451,#43,.T.);
#357=EDGE_CURVE('',#430,#454,#533,.F.);
#358=EDGE_CURVE('',#455,#454,#534,.T.);
#359=EDGE_CURVE('',#455,#431,#535,.T.);
#360=EDGE_CURVE('',#456,#457,#536,.T.);
#361=EDGE_CURVE('',#456,#428,#537,.T.);
#362=EDGE_CURVE('',#429,#457,#538,.F.);
#363=EDGE_CURVE('',#458,#458,#44,.T.);
#364=EDGE_CURVE('',#459,#459,#45,.T.);
#365=EDGE_CURVE('',#460,#460,#46,.T.);
#366=EDGE_CURVE('',#461,#461,#47,.T.);
#367=EDGE_CURVE('',#462,#462,#48,.T.);
#368=EDGE_CURVE('',#463,#463,#49,.T.);
#369=EDGE_CURVE('',#464,#464,#50,.T.);
#370=EDGE_CURVE('',#465,#465,#51,.T.);
#371=EDGE_CURVE('',#434,#466,#539,.F.);
#372=EDGE_CURVE('',#466,#467,#540,.T.);
#373=EDGE_CURVE('',#467,#435,#541,.T.);
#374=EDGE_CURVE('',#454,#456,#52,.T.);
#375=EDGE_CURVE('',#457,#467,#53,.T.);
#376=EDGE_CURVE('',#466,#449,#54,.T.);
#377=EDGE_CURVE('',#448,#455,#55,.T.);
#378=EDGE_CURVE('',#451,#445,#542,.F.);
#379=EDGE_CURVE('',#444,#450,#543,.T.);
#380=EDGE_CURVE('',#409,#453,#544,.T.);
#381=EDGE_CURVE('',#452,#408,#545,.F.);
#382=EDGE_CURVE('',#401,#468,#546,.T.);
#383=EDGE_CURVE('',#469,#468,#547,.T.);
#384=EDGE_CURVE('',#402,#469,#548,.T.);
#385=EDGE_CURVE('',#469,#422,#549,.T.);
#386=EDGE_CURVE('',#468,#423,#550,.T.);
#387=EDGE_CURVE('',#396,#470,#551,.T.);
#388=EDGE_CURVE('',#471,#470,#552,.T.);
#389=EDGE_CURVE('',#398,#471,#553,.T.);
#390=EDGE_CURVE('',#471,#414,#554,.T.);
#391=EDGE_CURVE('',#470,#415,#555,.T.);
#392=EDGE_CURVE('',#472,#472,#56,.T.);
#393=EDGE_CURVE('',#473,#473,#57,.T.);
#394=EDGE_CURVE('',#474,#474,#58,.T.);
#395=EDGE_CURVE('',#475,#475,#59,.T.);
#396=VERTEX_POINT('',#1180);
#397=VERTEX_POINT('',#1181);
#398=VERTEX_POINT('',#1183);
#399=VERTEX_POINT('',#1185);
#400=VERTEX_POINT('',#1187);
#401=VERTEX_POINT('',#1189);
#402=VERTEX_POINT('',#1191);
#403=VERTEX_POINT('',#1193);
#404=VERTEX_POINT('',#1195);
#405=VERTEX_POINT('',#1197);
#406=VERTEX_POINT('',#1199);
#407=VERTEX_POINT('',#1201);
#408=VERTEX_POINT('',#1205);
#409=VERTEX_POINT('',#1206);
#410=VERTEX_POINT('',#1208);
#411=VERTEX_POINT('',#1210);
#412=VERTEX_POINT('',#1212);
#413=VERTEX_POINT('',#1214);
#414=VERTEX_POINT('',#1218);
#415=VERTEX_POINT('',#1220);
#416=VERTEX_POINT('',#1223);
#417=VERTEX_POINT('',#1225);
#418=VERTEX_POINT('',#1227);
#419=VERTEX_POINT('',#1229);
#420=VERTEX_POINT('',#1231);
#421=VERTEX_POINT('',#1233);
#422=VERTEX_POINT('',#1236);
#423=VERTEX_POINT('',#1238);
#424=VERTEX_POINT('',#1242);
#425=VERTEX_POINT('',#1244);
#426=VERTEX_POINT('',#1246);
#427=VERTEX_POINT('',#1248);
#428=VERTEX_POINT('',#1250);
#429=VERTEX_POINT('',#1251);
#430=VERTEX_POINT('',#1253);
#431=VERTEX_POINT('',#1255);
#432=VERTEX_POINT('',#1257);
#433=VERTEX_POINT('',#1259);
#434=VERTEX_POINT('',#1261);
#435=VERTEX_POINT('',#1263);
#436=VERTEX_POINT('',#1267);
#437=VERTEX_POINT('',#1271);
#438=VERTEX_POINT('',#1273);
#439=VERTEX_POINT('',#1277);
#440=VERTEX_POINT('',#1283);
#441=VERTEX_POINT('',#1284);
#442=VERTEX_POINT('',#1288);
#443=VERTEX_POINT('',#1292);
#444=VERTEX_POINT('',#1294);
#445=VERTEX_POINT('',#1296);
#446=VERTEX_POINT('',#1300);
#447=VERTEX_POINT('',#1302);
#448=VERTEX_POINT('',#1307);
#449=VERTEX_POINT('',#1309);
#450=VERTEX_POINT('',#1313);
#451=VERTEX_POINT('',#1314);
#452=VERTEX_POINT('',#1317);
#453=VERTEX_POINT('',#1319);
#454=VERTEX_POINT('',#1323);
#455=VERTEX_POINT('',#1325);
#456=VERTEX_POINT('',#1329);
#457=VERTEX_POINT('',#1330);
#458=VERTEX_POINT('',#1335);
#459=VERTEX_POINT('',#1337);
#460=VERTEX_POINT('',#1340);
#461=VERTEX_POINT('',#1342);
#462=VERTEX_POINT('',#1345);
#463=VERTEX_POINT('',#1347);
#464=VERTEX_POINT('',#1350);
#465=VERTEX_POINT('',#1352);
#466=VERTEX_POINT('',#1355);
#467=VERTEX_POINT('',#1357);
#468=VERTEX_POINT('',#1376);
#469=VERTEX_POINT('',#1378);
#470=VERTEX_POINT('',#1387);
#471=VERTEX_POINT('',#1389);
#472=VERTEX_POINT('',#1398);
#473=VERTEX_POINT('',#1402);
#474=VERTEX_POINT('',#1406);
#475=VERTEX_POINT('',#1410);
#476=LINE('',#1179,#556);
#477=LINE('',#1182,#557);
#478=LINE('',#1184,#558);
#479=LINE('',#1186,#559);
#480=LINE('',#1188,#560);
#481=LINE('',#1190,#561);
#482=LINE('',#1192,#562);
#483=LINE('',#1194,#563);
#484=LINE('',#1196,#564);
#485=LINE('',#1198,#565);
#486=LINE('',#1200,#566);
#487=LINE('',#1202,#567);
#488=LINE('',#1204,#568);
#489=LINE('',#1209,#569);
#490=LINE('',#1211,#570);
#491=LINE('',#1213,#571);
#492=LINE('',#1217,#572);
#493=LINE('',#1219,#573);
#494=LINE('',#1221,#574);
#495=LINE('',#1222,#575);
#496=LINE('',#1224,#576);
#497=LINE('',#1226,#577);
#498=LINE('',#1228,#578);
#499=LINE('',#1230,#579);
#500=LINE('',#1232,#580);
#501=LINE('',#1234,#581);
#502=LINE('',#1235,#582);
#503=LINE('',#1237,#583);
#504=LINE('',#1239,#584);
#505=LINE('',#1249,#585);
#506=LINE('',#1254,#586);
#507=LINE('',#1258,#587);
#508=LINE('',#1262,#588);
#509=LINE('',#1266,#589);
#510=LINE('',#1268,#590);
#511=LINE('',#1270,#591);
#512=LINE('',#1272,#592);
#513=LINE('',#1274,#593);
#514=LINE('',#1276,#594);
#515=LINE('',#1278,#595);
#516=LINE('',#1280,#596);
#517=LINE('',#1282,#597);
#518=LINE('',#1285,#598);
#519=LINE('',#1286,#599);
#520=LINE('',#1287,#600);
#521=LINE('',#1289,#601);
#522=LINE('',#1291,#602);
#523=LINE('',#1295,#603);
#524=LINE('',#1299,#604);
#525=LINE('',#1301,#605);
#526=LINE('',#1303,#606);
#527=LINE('',#1304,#607);
#528=LINE('',#1306,#608);
#529=LINE('',#1308,#609);
#530=LINE('',#1310,#610);
#531=LINE('',#1312,#611);
#532=LINE('',#1318,#612);
#533=LINE('',#1322,#613);
#534=LINE('',#1324,#614);
#535=LINE('',#1326,#615);
#536=LINE('',#1328,#616);
#537=LINE('',#1331,#617);
#538=LINE('',#1332,#618);
#539=LINE('',#1354,#619);
#540=LINE('',#1356,#620);
#541=LINE('',#1358,#621);
#542=LINE('',#1369,#622);
#543=LINE('',#1370,#623);
#544=LINE('',#1372,#624);
#545=LINE('',#1373,#625);
#546=LINE('',#1375,#626);
#547=LINE('',#1377,#627);
#548=LINE('',#1379,#628);
#549=LINE('',#1381,#629);
#550=LINE('',#1383,#630);
#551=LINE('',#1386,#631);
#552=LINE('',#1388,#632);
#553=LINE('',#1390,#633);
#554=LINE('',#1392,#634);
#555=LINE('',#1394,#635);
#556=VECTOR('',#943,1.);
#557=VECTOR('',#944,1.);
#558=VECTOR('',#945,1.);
#559=VECTOR('',#946,1.);
#560=VECTOR('',#947,1.);
#561=VECTOR('',#948,1.);
#562=VECTOR('',#949,1.);
#563=VECTOR('',#950,1.);
#564=VECTOR('',#951,1.);
#565=VECTOR('',#952,1.);
#566=VECTOR('',#953,1.);
#567=VECTOR('',#954,1.);
#568=VECTOR('',#957,1.);
#569=VECTOR('',#960,1.);
#570=VECTOR('',#961,1.);
#571=VECTOR('',#962,1.);
#572=VECTOR('',#967,1.);
#573=VECTOR('',#968,1.);
#574=VECTOR('',#969,1.);
#575=VECTOR('',#970,1.);
#576=VECTOR('',#971,1.);
#577=VECTOR('',#972,1.);
#578=VECTOR('',#973,1.);
#579=VECTOR('',#974,1.);
#580=VECTOR('',#975,1.);
#581=VECTOR('',#976,1.);
#582=VECTOR('',#977,1.);
#583=VECTOR('',#978,1.);
#584=VECTOR('',#979,1.);
#585=VECTOR('',#990,1.);
#586=VECTOR('',#993,1.);
#587=VECTOR('',#996,1.);
#588=VECTOR('',#999,1.);
#589=VECTOR('',#1004,1.);
#590=VECTOR('',#1005,1.);
#591=VECTOR('',#1008,1.);
#592=VECTOR('',#1009,1.);
#593=VECTOR('',#1010,1.);
#594=VECTOR('',#1013,1.);
#595=VECTOR('',#1014,1.);
#596=VECTOR('',#1017,1.);
#597=VECTOR('',#1020,1.);
#598=VECTOR('',#1021,1.);
#599=VECTOR('',#1022,1.);
#600=VECTOR('',#1023,1.);
#601=VECTOR('',#1024,1.);
#602=VECTOR('',#1027,1.);
#603=VECTOR('',#1030,1.);
#604=VECTOR('',#1035,1.);
#605=VECTOR('',#1036,1.);
#606=VECTOR('',#1037,1.);
#607=VECTOR('',#1038,1.);
#608=VECTOR('',#1041,1.);
#609=VECTOR('',#1042,1.);
#610=VECTOR('',#1043,1.);
#611=VECTOR('',#1046,1.);
#612=VECTOR('',#1051,1.);
#613=VECTOR('',#1056,1.);
#614=VECTOR('',#1057,1.);
#615=VECTOR('',#1058,1.);
#616=VECTOR('',#1061,1.);
#617=VECTOR('',#1062,1.);
#618=VECTOR('',#1063,1.);
#619=VECTOR('',#1090,1.);
#620=VECTOR('',#1091,1.);
#621=VECTOR('',#1092,1.);
#622=VECTOR('',#1113,1.);
#623=VECTOR('',#1114,1.);
#624=VECTOR('',#1117,1.);
#625=VECTOR('',#1118,1.);
#626=VECTOR('',#1121,1.);
#627=VECTOR('',#1122,1.);
#628=VECTOR('',#1123,1.);
#629=VECTOR('',#1126,1.);
#630=VECTOR('',#1129,1.);
#631=VECTOR('',#1134,1.);
#632=VECTOR('',#1135,1.);
#633=VECTOR('',#1136,1.);
#634=VECTOR('',#1139,1.);
#635=VECTOR('',#1142,1.);
#636=EDGE_LOOP('',(#60,#61,#62,#63,#64,#65,#66,#67,#68,#69,#70,#71));
#637=EDGE_LOOP('',(#72,#73,#74,#75,#76,#77));
#638=EDGE_LOOP('',(#78,#79,#80,#81,#82,#83,#84,#85,#86,#87,#88,#89,#90,
#91,#92,#93));
#639=EDGE_LOOP('',(#94));
#640=EDGE_LOOP('',(#95));
#641=EDGE_LOOP('',(#96));
#642=EDGE_LOOP('',(#97));
#643=EDGE_LOOP('',(#98,#99,#100,#101,#102,#103,#104,#105));
#644=EDGE_LOOP('',(#106,#107,#108,#109));
#645=EDGE_LOOP('',(#110,#111,#112,#113));
#646=EDGE_LOOP('',(#114,#115,#116,#117));
#647=EDGE_LOOP('',(#118,#119,#120,#121));
#648=EDGE_LOOP('',(#122,#123,#124,#125,#126,#127,#128,#129));
#649=EDGE_LOOP('',(#130,#131,#132,#133,#134,#135));
#650=EDGE_LOOP('',(#136,#137,#138,#139,#140,#141,#142,#143));
#651=EDGE_LOOP('',(#144,#145,#146,#147));
#652=EDGE_LOOP('',(#148,#149,#150,#151,#152,#153,#154,#155));
#653=EDGE_LOOP('',(#156,#157,#158,#159));
#654=EDGE_LOOP('',(#160,#161,#162,#163));
#655=EDGE_LOOP('',(#164));
#656=EDGE_LOOP('',(#165));
#657=EDGE_LOOP('',(#166));
#658=EDGE_LOOP('',(#167));
#659=EDGE_LOOP('',(#168));
#660=EDGE_LOOP('',(#169));
#661=EDGE_LOOP('',(#170));
#662=EDGE_LOOP('',(#171));
#663=EDGE_LOOP('',(#172,#173,#174,#175));
#664=EDGE_LOOP('',(#176,#177,#178,#179,#180,#181,#182,#183));
#665=EDGE_LOOP('',(#184));
#666=EDGE_LOOP('',(#185));
#667=EDGE_LOOP('',(#186));
#668=EDGE_LOOP('',(#187));
#669=EDGE_LOOP('',(#188,#189,#190,#191,#192,#193,#194,#195));
#670=EDGE_LOOP('',(#196,#197,#198,#199));
#671=EDGE_LOOP('',(#200,#201,#202,#203));
#672=EDGE_LOOP('',(#204,#205,#206,#207));
#673=EDGE_LOOP('',(#208,#209,#210,#211));
#674=EDGE_LOOP('',(#212,#213,#214,#215));
#675=EDGE_LOOP('',(#216,#217,#218,#219));
#676=EDGE_LOOP('',(#220,#221,#222,#223));
#677=EDGE_LOOP('',(#224,#225,#226,#227));
#678=EDGE_LOOP('',(#228,#229,#230,#231));
#679=EDGE_LOOP('',(#232,#233,#234,#235));
#680=EDGE_LOOP('',(#236,#237,#238,#239));
#681=EDGE_LOOP('',(#240,#241,#242,#243));
#682=EDGE_LOOP('',(#244,#245,#246,#247));
#683=EDGE_LOOP('',(#248,#249,#250,#251));
#684=EDGE_LOOP('',(#252));
#685=EDGE_LOOP('',(#253));
#686=EDGE_LOOP('',(#254));
#687=EDGE_LOOP('',(#255));
#688=EDGE_LOOP('',(#256));
#689=EDGE_LOOP('',(#257));
#690=EDGE_LOOP('',(#258));
#691=EDGE_LOOP('',(#259));
#692=EDGE_LOOP('',(#260));
#693=EDGE_LOOP('',(#261));
#694=EDGE_LOOP('',(#262));
#695=EDGE_LOOP('',(#263));
#696=EDGE_LOOP('',(#264));
#697=EDGE_LOOP('',(#265));
#698=EDGE_LOOP('',(#266));
#699=EDGE_LOOP('',(#267));
#700=EDGE_LOOP('',(#268,#269,#270,#271));
#701=EDGE_LOOP('',(#272,#273,#274,#275));
#702=EDGE_LOOP('',(#276,#277,#278,#279));
#703=EDGE_LOOP('',(#280,#281,#282,#283));
#704=FACE_BOUND('',#636,.T.);
#705=FACE_BOUND('',#637,.T.);
#706=FACE_BOUND('',#638,.T.);
#707=FACE_BOUND('',#639,.T.);
#708=FACE_BOUND('',#640,.T.);
#709=FACE_BOUND('',#641,.T.);
#710=FACE_BOUND('',#642,.T.);
#711=FACE_BOUND('',#643,.T.);
#712=FACE_BOUND('',#644,.T.);
#713=FACE_BOUND('',#645,.T.);
#714=FACE_BOUND('',#646,.T.);
#715=FACE_BOUND('',#647,.T.);
#716=FACE_BOUND('',#648,.T.);
#717=FACE_BOUND('',#649,.T.);
#718=FACE_BOUND('',#650,.T.);
#719=FACE_BOUND('',#651,.T.);
#720=FACE_BOUND('',#652,.T.);
#721=FACE_BOUND('',#653,.T.);
#722=FACE_BOUND('',#654,.T.);
#723=FACE_BOUND('',#655,.T.);
#724=FACE_BOUND('',#656,.T.);
#725=FACE_BOUND('',#657,.T.);
#726=FACE_BOUND('',#658,.T.);
#727=FACE_BOUND('',#659,.T.);
#728=FACE_BOUND('',#660,.T.);
#729=FACE_BOUND('',#661,.T.);
#730=FACE_BOUND('',#662,.T.);
#731=FACE_BOUND('',#663,.T.);
#732=FACE_BOUND('',#664,.T.);
#733=FACE_BOUND('',#665,.T.);
#734=FACE_BOUND('',#666,.T.);
#735=FACE_BOUND('',#667,.T.);
#736=FACE_BOUND('',#668,.T.);
#737=FACE_BOUND('',#669,.T.);
#738=FACE_BOUND('',#670,.T.);
#739=FACE_BOUND('',#671,.T.);
#740=FACE_BOUND('',#672,.T.);
#741=FACE_BOUND('',#673,.T.);
#742=FACE_BOUND('',#674,.T.);
#743=FACE_BOUND('',#675,.T.);
#744=FACE_BOUND('',#676,.T.);
#745=FACE_BOUND('',#677,.T.);
#746=FACE_BOUND('',#678,.T.);
#747=FACE_BOUND('',#679,.T.);
#748=FACE_BOUND('',#680,.T.);
#749=FACE_BOUND('',#681,.T.);
#750=FACE_BOUND('',#682,.T.);
#751=FACE_BOUND('',#683,.T.);
#752=FACE_BOUND('',#684,.T.);
#753=FACE_BOUND('',#685,.T.);
#754=FACE_BOUND('',#686,.T.);
#755=FACE_BOUND('',#687,.T.);
#756=FACE_BOUND('',#688,.T.);
#757=FACE_BOUND('',#689,.T.);
#758=FACE_BOUND('',#690,.T.);
#759=FACE_BOUND('',#691,.T.);
#760=FACE_BOUND('',#692,.T.);
#761=FACE_BOUND('',#693,.T.);
#762=FACE_BOUND('',#694,.T.);
#763=FACE_BOUND('',#695,.T.);
#764=FACE_BOUND('',#696,.T.);
#765=FACE_BOUND('',#697,.T.);
#766=FACE_BOUND('',#698,.T.);
#767=FACE_BOUND('',#699,.T.);
#768=FACE_BOUND('',#700,.T.);
#769=FACE_BOUND('',#701,.T.);
#770=FACE_BOUND('',#702,.T.);
#771=FACE_BOUND('',#703,.T.);
#772=PLANE('',#861);
#773=PLANE('',#862);
#774=PLANE('',#865);
#775=PLANE('',#866);
#776=PLANE('',#875);
#777=PLANE('',#876);
#778=PLANE('',#877);
#779=PLANE('',#878);
#780=PLANE('',#879);
#781=PLANE('',#880);
#782=PLANE('',#883);
#783=PLANE('',#884);
#784=PLANE('',#885);
#785=PLANE('',#890);
#786=PLANE('',#903);
#787=PLANE('',#904);
#788=PLANE('',#913);
#789=PLANE('',#914);
#790=PLANE('',#915);
#791=PLANE('',#916);
#792=PLANE('',#917);
#793=PLANE('',#918);
#794=PLANE('',#919);
#795=PLANE('',#920);
#796=PLANE('',#921);
#797=PLANE('',#922);
#798=PLANE('',#925);
#799=PLANE('',#928);
#800=PLANE('',#931);
#801=PLANE('',#934);
#802=ADVANCED_FACE('',(#704),#772,.F.);
#803=ADVANCED_FACE('',(#705),#773,.F.);
#804=ADVANCED_FACE('',(#706),#774,.T.);
#805=ADVANCED_FACE('',(#707,#708,#709,#710,#711),#775,.F.);
#806=ADVANCED_FACE('',(#712),#776,.F.);
#807=ADVANCED_FACE('',(#713),#777,.T.);
#808=ADVANCED_FACE('',(#714),#778,.T.);
#809=ADVANCED_FACE('',(#715),#779,.T.);
#810=ADVANCED_FACE('',(#716),#780,.F.);
#811=ADVANCED_FACE('',(#717),#781,.F.);
#812=ADVANCED_FACE('',(#718),#782,.T.);
#813=ADVANCED_FACE('',(#719),#783,.T.);
#814=ADVANCED_FACE('',(#720,#721),#784,.F.);
#815=ADVANCED_FACE('',(#722),#785,.F.);
#816=ADVANCED_FACE('',(#723,#724),#12,.F.);
#817=ADVANCED_FACE('',(#725,#726),#13,.F.);
#818=ADVANCED_FACE('',(#727,#728),#14,.F.);
#819=ADVANCED_FACE('',(#729,#730),#15,.F.);
#820=ADVANCED_FACE('',(#731),#786,.T.);
#821=ADVANCED_FACE('',(#732,#733,#734,#735,#736,#737),#787,.T.);
#822=ADVANCED_FACE('',(#738),#16,.T.);
#823=ADVANCED_FACE('',(#739),#17,.T.);
#824=ADVANCED_FACE('',(#740),#18,.T.);
#825=ADVANCED_FACE('',(#741),#19,.T.);
#826=ADVANCED_FACE('',(#742),#788,.F.);
#827=ADVANCED_FACE('',(#743),#789,.T.);
#828=ADVANCED_FACE('',(#744),#790,.T.);
#829=ADVANCED_FACE('',(#745),#791,.T.);
#830=ADVANCED_FACE('',(#746),#792,.T.);
#831=ADVANCED_FACE('',(#747),#793,.F.);
#832=ADVANCED_FACE('',(#748),#794,.T.);
#833=ADVANCED_FACE('',(#749),#795,.T.);
#834=ADVANCED_FACE('',(#750),#796,.T.);
#835=ADVANCED_FACE('',(#751),#797,.F.);
#836=ADVANCED_FACE('',(#752,#753),#20,.F.);
#837=ADVANCED_FACE('',(#754,#755),#798,.F.);
#838=ADVANCED_FACE('',(#756,#757),#21,.F.);
#839=ADVANCED_FACE('',(#758,#759),#799,.F.);
#840=ADVANCED_FACE('',(#760,#761),#22,.F.);
#841=ADVANCED_FACE('',(#762,#763),#800,.F.);
#842=ADVANCED_FACE('',(#764,#765),#23,.F.);
#843=ADVANCED_FACE('',(#766,#767),#801,.F.);
#844=ADVANCED_FACE('',(#768),#24,.F.);
#845=ADVANCED_FACE('',(#769),#25,.F.);
#846=ADVANCED_FACE('',(#770),#26,.F.);
#847=ADVANCED_FACE('',(#771),#27,.F.);
#848=CLOSED_SHELL('',(#802,#803,#804,#805,#806,#807,#808,#809,#810,#811,
#812,#813,#814,#815,#816,#817,#818,#819,#820,#821,#822,#823,#824,#825,#826,
#827,#828,#829,#830,#831,#832,#833,#834,#835,#836,#837,#838,#839,#840,#841,
#842,#843,#844,#845,#846,#847));
#849=STYLED_ITEM('',(#850),#857);
#850=PRESENTATION_STYLE_ASSIGNMENT((#851));
#851=SURFACE_STYLE_USAGE(.BOTH.,#852);
#852=SURFACE_SIDE_STYLE('',(#853));
#853=SURFACE_STYLE_FILL_AREA(#854);
#854=FILL_AREA_STYLE('',(#855));
#855=FILL_AREA_STYLE_COLOUR('',#856);
#856=COLOUR_RGB('',0.615686274509804,0.811764705882353,0.929411764705882);
#857=MANIFOLD_SOLID_BREP('Part 1',#848);
#858=SHAPE_DEFINITION_REPRESENTATION(#1422,#859);
#859=SHAPE_REPRESENTATION('Part 1',(#860),#1417);
#860=AXIS2_PLACEMENT_3D('',#1177,#939,#940);
#861=AXIS2_PLACEMENT_3D('',#1178,#941,#942);
#862=AXIS2_PLACEMENT_3D('',#1203,#955,#956);
#863=AXIS2_PLACEMENT_3D('',#1207,#958,#959);
#864=AXIS2_PLACEMENT_3D('',#1215,#963,#964);
#865=AXIS2_PLACEMENT_3D('',#1216,#965,#966);
#866=AXIS2_PLACEMENT_3D('',#1240,#980,#981);
#867=AXIS2_PLACEMENT_3D('',#1241,#982,#983);
#868=AXIS2_PLACEMENT_3D('',#1243,#984,#985);
#869=AXIS2_PLACEMENT_3D('',#1245,#986,#987);
#870=AXIS2_PLACEMENT_3D('',#1247,#988,#989);
#871=AXIS2_PLACEMENT_3D('',#1252,#991,#992);
#872=AXIS2_PLACEMENT_3D('',#1256,#994,#995);
#873=AXIS2_PLACEMENT_3D('',#1260,#997,#998);
#874=AXIS2_PLACEMENT_3D('',#1264,#1000,#1001);
#875=AXIS2_PLACEMENT_3D('',#1265,#1002,#1003);
#876=AXIS2_PLACEMENT_3D('',#1269,#1006,#1007);
#877=AXIS2_PLACEMENT_3D('',#1275,#1011,#1012);
#878=AXIS2_PLACEMENT_3D('',#1279,#1015,#1016);
#879=AXIS2_PLACEMENT_3D('',#1281,#1018,#1019);
#880=AXIS2_PLACEMENT_3D('',#1290,#1025,#1026);
#881=AXIS2_PLACEMENT_3D('',#1293,#1028,#1029);
#882=AXIS2_PLACEMENT_3D('',#1297,#1031,#1032);
#883=AXIS2_PLACEMENT_3D('',#1298,#1033,#1034);
#884=AXIS2_PLACEMENT_3D('',#1305,#1039,#1040);
#885=AXIS2_PLACEMENT_3D('',#1311,#1044,#1045);
#886=AXIS2_PLACEMENT_3D('',#1315,#1047,#1048);
#887=AXIS2_PLACEMENT_3D('',#1316,#1049,#1050);
#888=AXIS2_PLACEMENT_3D('',#1320,#1052,#1053);
#889=AXIS2_PLACEMENT_3D('',#1321,#1054,#1055);
#890=AXIS2_PLACEMENT_3D('',#1327,#1059,#1060);
#891=AXIS2_PLACEMENT_3D('',#1333,#1064,#1065);
#892=AXIS2_PLACEMENT_3D('',#1334,#1066,#1067);
#893=AXIS2_PLACEMENT_3D('',#1336,#1068,#1069);
#894=AXIS2_PLACEMENT_3D('',#1338,#1070,#1071);
#895=AXIS2_PLACEMENT_3D('',#1339,#1072,#1073);
#896=AXIS2_PLACEMENT_3D('',#1341,#1074,#1075);
#897=AXIS2_PLACEMENT_3D('',#1343,#1076,#1077);
#898=AXIS2_PLACEMENT_3D('',#1344,#1078,#1079);
#899=AXIS2_PLACEMENT_3D('',#1346,#1080,#1081);
#900=AXIS2_PLACEMENT_3D('',#1348,#1082,#1083);
#901=AXIS2_PLACEMENT_3D('',#1349,#1084,#1085);
#902=AXIS2_PLACEMENT_3D('',#1351,#1086,#1087);
#903=AXIS2_PLACEMENT_3D('',#1353,#1088,#1089);
#904=AXIS2_PLACEMENT_3D('',#1359,#1093,#1094);
#905=AXIS2_PLACEMENT_3D('',#1360,#1095,#1096);
#906=AXIS2_PLACEMENT_3D('',#1361,#1097,#1098);
#907=AXIS2_PLACEMENT_3D('',#1362,#1099,#1100);
#908=AXIS2_PLACEMENT_3D('',#1363,#1101,#1102);
#909=AXIS2_PLACEMENT_3D('',#1364,#1103,#1104);
#910=AXIS2_PLACEMENT_3D('',#1365,#1105,#1106);
#911=AXIS2_PLACEMENT_3D('',#1366,#1107,#1108);
#912=AXIS2_PLACEMENT_3D('',#1367,#1109,#1110);
#913=AXIS2_PLACEMENT_3D('',#1368,#1111,#1112);
#914=AXIS2_PLACEMENT_3D('',#1371,#1115,#1116);
#915=AXIS2_PLACEMENT_3D('',#1374,#1119,#1120);
#916=AXIS2_PLACEMENT_3D('',#1380,#1124,#1125);
#917=AXIS2_PLACEMENT_3D('',#1382,#1127,#1128);
#918=AXIS2_PLACEMENT_3D('',#1384,#1130,#1131);
#919=AXIS2_PLACEMENT_3D('',#1385,#1132,#1133);
#920=AXIS2_PLACEMENT_3D('',#1391,#1137,#1138);
#921=AXIS2_PLACEMENT_3D('',#1393,#1140,#1141);
#922=AXIS2_PLACEMENT_3D('',#1395,#1143,#1144);
#923=AXIS2_PLACEMENT_3D('',#1396,#1145,#1146);
#924=AXIS2_PLACEMENT_3D('',#1397,#1147,#1148);
#925=AXIS2_PLACEMENT_3D('',#1399,#1149,#1150);
#926=AXIS2_PLACEMENT_3D('',#1400,#1151,#1152);
#927=AXIS2_PLACEMENT_3D('',#1401,#1153,#1154);
#928=AXIS2_PLACEMENT_3D('',#1403,#1155,#1156);
#929=AXIS2_PLACEMENT_3D('',#1404,#1157,#1158);
#930=AXIS2_PLACEMENT_3D('',#1405,#1159,#1160);
#931=AXIS2_PLACEMENT_3D('',#1407,#1161,#1162);
#932=AXIS2_PLACEMENT_3D('',#1408,#1163,#1164);
#933=AXIS2_PLACEMENT_3D('',#1409,#1165,#1166);
#934=AXIS2_PLACEMENT_3D('',#1411,#1167,#1168);
#935=AXIS2_PLACEMENT_3D('',#1412,#1169,#1170);
#936=AXIS2_PLACEMENT_3D('',#1413,#1171,#1172);
#937=AXIS2_PLACEMENT_3D('',#1414,#1173,#1174);
#938=AXIS2_PLACEMENT_3D('',#1415,#1175,#1176);
#939=DIRECTION('',(0.,0.,1.));
#940=DIRECTION('',(1.,0.,0.));
#941=DIRECTION('',(0.,-1.,0.));
#942=DIRECTION('',(0.,0.,-1.));
#943=DIRECTION('',(0.,0.,-1.));
#944=DIRECTION('',(-1.,0.,0.));
#945=DIRECTION('',(0.,0.,-1.));
#946=DIRECTION('',(-1.,0.,0.));
#947=DIRECTION('',(0.,0.,-1.));
#948=DIRECTION('',(-1.,0.,0.));
#949=DIRECTION('',(0.,0.,-1.));
#950=DIRECTION('',(-1.,0.,0.));
#951=DIRECTION('',(0.,0.,-1.));
#952=DIRECTION('',(-1.,0.,0.));
#953=DIRECTION('',(0.,0.,-1.));
#954=DIRECTION('',(-1.,0.,0.));
#955=DIRECTION('',(0.,1.,0.));
#956=DIRECTION('',(0.,0.,1.));
#957=DIRECTION('',(-1.,0.,0.));
#958=DIRECTION('',(0.,1.,0.));
#959=DIRECTION('',(0.,0.,1.));
#960=DIRECTION('',(0.,0.,-1.));
#961=DIRECTION('',(1.,0.,0.));
#962=DIRECTION('',(0.,0.,-1.));
#963=DIRECTION('',(0.,1.,0.));
#964=DIRECTION('',(0.,0.,1.));
#965=DIRECTION('',(0.,0.,1.));
#966=DIRECTION('',(1.,0.,0.));
#967=DIRECTION('',(0.,1.,0.));
#968=DIRECTION('',(1.,0.,0.));
#969=DIRECTION('',(0.,1.,0.));
#970=DIRECTION('',(2.29764698804875E-16,-1.,0.));
#971=DIRECTION('',(-1.,0.,0.));
#972=DIRECTION('',(0.,1.,0.));
#973=DIRECTION('',(1.,0.,0.));
#974=DIRECTION('',(0.,1.,0.));
#975=DIRECTION('',(-1.,0.,0.));
#976=DIRECTION('',(2.29764698804875E-16,-1.,0.));
#977=DIRECTION('',(0.,1.,0.));
#978=DIRECTION('',(1.,0.,0.));
#979=DIRECTION('',(0.,1.,0.));
#980=DIRECTION('',(0.,0.,1.));
#981=DIRECTION('',(1.,0.,0.));
#982=DIRECTION('',(0.,0.,1.));
#983=DIRECTION('',(1.,0.,0.));
#984=DIRECTION('',(0.,0.,1.));
#985=DIRECTION('',(1.,0.,0.));
#986=DIRECTION('',(0.,0.,1.));
#987=DIRECTION('',(1.,0.,0.));
#988=DIRECTION('',(0.,0.,1.));
#989=DIRECTION('',(1.,0.,0.));
#990=DIRECTION('',(0.,-1.,0.));
#991=DIRECTION('',(0.,0.,1.));
#992=DIRECTION('',(1.,0.,0.));
#993=DIRECTION('',(-1.,0.,0.));
#994=DIRECTION('',(0.,0.,1.));
#995=DIRECTION('',(1.,0.,0.));
#996=DIRECTION('',(0.,-1.,0.));
#997=DIRECTION('',(0.,0.,1.));
#998=DIRECTION('',(1.,0.,0.));
#999=DIRECTION('',(-1.,0.,0.));
#1000=DIRECTION('',(0.,0.,1.));
#1001=DIRECTION('',(1.,0.,0.));
#1002=DIRECTION('',(1.,2.29764698804875E-16,0.));
#1003=DIRECTION('',(-2.29764698804875E-16,1.,0.));
#1004=DIRECTION('',(0.,0.,-1.));
#1005=DIRECTION('',(2.29764698804875E-16,-1.,0.));
#1006=DIRECTION('',(0.,-1.,0.));
#1007=DIRECTION('',(0.,0.,-1.));
#1008=DIRECTION('',(0.,0.,-1.));
#1009=DIRECTION('',(-1.,0.,0.));
#1010=DIRECTION('',(0.,0.,-1.));
#1011=DIRECTION('',(0.,-1.,0.));
#1012=DIRECTION('',(0.,0.,-1.));
#1013=DIRECTION('',(-1.,0.,0.));
#1014=DIRECTION('',(0.,0.,-1.));
#1015=DIRECTION('',(1.,2.29764698804875E-16,0.));
#1016=DIRECTION('',(-2.29764698804875E-16,1.,0.));
#1017=DIRECTION('',(2.29764698804875E-16,-1.,0.));
#1018=DIRECTION('',(-1.,0.,0.));
#1019=DIRECTION('',(0.,0.,1.));
#1020=DIRECTION('',(1.7347234759768E-16,0.,-1.));
#1021=DIRECTION('',(0.,1.,0.));
#1022=DIRECTION('',(0.,1.,0.));
#1023=DIRECTION('',(0.,0.,-1.));
#1024=DIRECTION('',(0.,1.,0.));
#1025=DIRECTION('',(0.,1.,0.));
#1026=DIRECTION('',(0.,0.,1.));
#1027=DIRECTION('',(0.,0.,-1.));
#1028=DIRECTION('',(0.,1.,0.));
#1029=DIRECTION('',(0.,0.,1.));
#1030=DIRECTION('',(-1.,0.,0.));
#1031=DIRECTION('',(0.,1.,0.));
#1032=DIRECTION('',(0.,0.,1.));
#1033=DIRECTION('',(-1.,0.,0.));
#1034=DIRECTION('',(0.,0.,1.));
#1035=DIRECTION('',(0.,1.,0.));
#1036=DIRECTION('',(1.7347234759768E-16,0.,-1.));
#1037=DIRECTION('',(0.,1.,0.));
#1038=DIRECTION('',(0.,1.,0.));
#1039=DIRECTION('',(1.,0.,0.));
#1040=DIRECTION('',(0.,0.,-1.));
#1041=DIRECTION('',(0.,0.,-1.));
#1042=DIRECTION('',(0.,-1.,0.));
#1043=DIRECTION('',(0.,0.,-1.));
#1044=DIRECTION('',(0.,-1.,0.));
#1045=DIRECTION('',(0.,0.,-1.));
#1046=DIRECTION('',(-1.,0.,0.));
#1047=DIRECTION('',(0.,-1.,0.));
#1048=DIRECTION('',(0.,0.,-1.));
#1049=DIRECTION('',(0.,-1.,0.));
#1050=DIRECTION('',(0.,0.,-1.));
#1051=DIRECTION('',(-1.,0.,0.));
#1052=DIRECTION('',(0.,-1.,0.));
#1053=DIRECTION('',(0.,0.,-1.));
#1054=DIRECTION('',(0.,-1.,0.));
#1055=DIRECTION('',(0.,0.,-1.));
#1056=DIRECTION('',(0.,0.,-1.));
#1057=DIRECTION('',(-1.,0.,0.));
#1058=DIRECTION('',(0.,0.,-1.));
#1059=DIRECTION('',(1.,0.,0.));
#1060=DIRECTION('',(0.,0.,-1.));
#1061=DIRECTION('',(0.,-1.,0.));
#1062=DIRECTION('',(0.,0.,-1.));
#1063=DIRECTION('',(0.,0.,-1.));
#1064=DIRECTION('',(0.,0.,-1.));
#1065=DIRECTION('',(-1.,0.,0.));
#1066=DIRECTION('',(0.,0.,1.));
#1067=DIRECTION('',(1.,0.,0.));
#1068=DIRECTION('',(0.,0.,1.));
#1069=DIRECTION('',(1.,0.,0.));
#1070=DIRECTION('',(0.,0.,-1.));
#1071=DIRECTION('',(-1.,0.,0.));
#1072=DIRECTION('',(0.,0.,1.));
#1073=DIRECTION('',(1.,0.,0.));
#1074=DIRECTION('',(0.,0.,1.));
#1075=DIRECTION('',(1.,0.,0.));
#1076=DIRECTION('',(0.,0.,-1.));
#1077=DIRECTION('',(-1.,0.,0.));
#1078=DIRECTION('',(0.,0.,1.));
#1079=DIRECTION('',(1.,0.,0.));
#1080=DIRECTION('',(0.,0.,1.));
#1081=DIRECTION('',(1.,0.,0.));
#1082=DIRECTION('',(0.,0.,-1.));
#1083=DIRECTION('',(-1.,0.,0.));
#1084=DIRECTION('',(0.,0.,1.));
#1085=DIRECTION('',(1.,0.,0.));
#1086=DIRECTION('',(0.,0.,1.));
#1087=DIRECTION('',(1.,0.,0.));
#1088=DIRECTION('',(0.,-1.,0.));
#1089=DIRECTION('',(0.,0.,-1.));
#1090=DIRECTION('',(0.,0.,-1.));
#1091=DIRECTION('',(-1.,0.,0.));
#1092=DIRECTION('',(0.,0.,-1.));
#1093=DIRECTION('',(0.,0.,1.));
#1094=DIRECTION('',(1.,0.,0.));
#1095=DIRECTION('',(0.,0.,1.));
#1096=DIRECTION('',(1.,0.,0.));
#1097=DIRECTION('',(0.,0.,1.));
#1098=DIRECTION('',(1.,0.,0.));
#1099=DIRECTION('',(0.,0.,1.));
#1100=DIRECTION('',(1.,0.,0.));
#1101=DIRECTION('',(0.,0.,1.));
#1102=DIRECTION('',(1.,0.,0.));
#1103=DIRECTION('',(0.,0.,-1.));
#1104=DIRECTION('',(-1.,0.,0.));
#1105=DIRECTION('',(0.,0.,1.));
#1106=DIRECTION('',(1.,0.,0.));
#1107=DIRECTION('',(0.,0.,-1.));
#1108=DIRECTION('',(-1.,0.,0.));
#1109=DIRECTION('',(0.,0.,1.));
#1110=DIRECTION('',(1.,0.,0.));
#1111=DIRECTION('',(0.,0.,-1.));
#1112=DIRECTION('',(-1.,0.,0.));
#1113=DIRECTION('',(0.,1.,0.));
#1114=DIRECTION('',(0.,1.,0.));
#1115=DIRECTION('',(0.,0.,-1.));
#1116=DIRECTION('',(-1.,0.,0.));
#1117=DIRECTION('',(0.,1.,0.));
#1118=DIRECTION('',(0.,1.,0.));
#1119=DIRECTION('',(0.,0.,1.));
#1120=DIRECTION('',(1.,0.,0.));
#1121=DIRECTION('',(0.,1.,0.));
#1122=DIRECTION('',(1.,0.,0.));
#1123=DIRECTION('',(0.,1.,0.));
#1124=DIRECTION('',(-1.,0.,0.));
#1125=DIRECTION('',(0.,0.,1.));
#1126=DIRECTION('',(0.,0.,-1.));
#1127=DIRECTION('',(0.,1.,0.));
#1128=DIRECTION('',(0.,0.,1.));
#1129=DIRECTION('',(0.,0.,-1.));
#1130=DIRECTION('',(-1.,0.,0.));
#1131=DIRECTION('',(0.,0.,1.));
#1132=DIRECTION('',(0.,0.,1.));
#1133=DIRECTION('',(1.,0.,0.));
#1134=DIRECTION('',(0.,1.,0.));
#1135=DIRECTION('',(1.,0.,0.));
#1136=DIRECTION('',(0.,1.,0.));
#1137=DIRECTION('',(-1.,0.,0.));
#1138=DIRECTION('',(0.,0.,1.));
#1139=DIRECTION('',(0.,0.,-1.));
#1140=DIRECTION('',(0.,1.,0.));
#1141=DIRECTION('',(0.,0.,1.));
#1142=DIRECTION('',(0.,0.,-1.));
#1143=DIRECTION('',(-1.,0.,0.));
#1144=DIRECTION('',(0.,0.,1.));
#1145=DIRECTION('',(0.,0.,-1.));
#1146=DIRECTION('',(-1.,0.,0.));
#1147=DIRECTION('',(0.,0.,1.));
#1148=DIRECTION('',(1.,0.,0.));
#1149=DIRECTION('',(0.,0.,1.));
#1150=DIRECTION('',(1.,0.,0.));
#1151=DIRECTION('',(0.,0.,-1.));
#1152=DIRECTION('',(-1.,0.,0.));
#1153=DIRECTION('',(0.,0.,1.));
#1154=DIRECTION('',(1.,0.,0.));
#1155=DIRECTION('',(0.,0.,1.));
#1156=DIRECTION('',(1.,0.,0.));
#1157=DIRECTION('',(0.,0.,-1.));
#1158=DIRECTION('',(-1.,0.,0.));
#1159=DIRECTION('',(0.,0.,1.));
#1160=DIRECTION('',(1.,0.,0.));
#1161=DIRECTION('',(0.,0.,1.));
#1162=DIRECTION('',(1.,0.,0.));
#1163=DIRECTION('',(0.,0.,-1.));
#1164=DIRECTION('',(-1.,0.,0.));
#1165=DIRECTION('',(0.,0.,1.));
#1166=DIRECTION('',(1.,0.,0.));
#1167=DIRECTION('',(0.,0.,1.));
#1168=DIRECTION('',(1.,0.,0.));
#1169=DIRECTION('',(0.,1.,0.));
#1170=DIRECTION('',(0.,0.,1.));
#1171=DIRECTION('',(0.,-1.,0.));
#1172=DIRECTION('',(0.,0.,-1.));
#1173=DIRECTION('',(0.,-1.,0.));
#1174=DIRECTION('',(0.,0.,-1.));
#1175=DIRECTION('',(0.,1.,0.));
#1176=DIRECTION('',(0.,0.,1.));
#1177=CARTESIAN_POINT('',(0.,0.,0.));
#1178=CARTESIAN_POINT('',(-0.000199999999999997,-0.0302,0.016));
#1179=CARTESIAN_POINT('',(0.0113,-0.0302,0.00985));
#1180=CARTESIAN_POINT('',(0.0113,-0.0302,0.00985));
#1181=CARTESIAN_POINT('',(0.0113,-0.0302,0.003));
#1182=CARTESIAN_POINT('',(0.0093,-0.0302,0.00985));
#1183=CARTESIAN_POINT('',(0.0073,-0.0302,0.00985));
#1184=CARTESIAN_POINT('',(0.0073,-0.0302,0.00985));
#1185=CARTESIAN_POINT('',(0.0073,-0.0302,0.003));
#1186=CARTESIAN_POINT('',(-0.000199999999999997,-0.0302,0.003));
#1187=CARTESIAN_POINT('',(-0.0077,-0.0302,0.003));
#1188=CARTESIAN_POINT('',(-0.0077,-0.0302,0.00985));
#1189=CARTESIAN_POINT('',(-0.0077,-0.0302,0.00985));
#1190=CARTESIAN_POINT('',(-0.0097,-0.0302,0.00985));
#1191=CARTESIAN_POINT('',(-0.0117,-0.0302,0.00985));
#1192=CARTESIAN_POINT('',(-0.0117,-0.0302,0.00985));
#1193=CARTESIAN_POINT('',(-0.0117,-0.0302,0.003));
#1194=CARTESIAN_POINT('',(-0.02045,-0.0302,0.003));
#1195=CARTESIAN_POINT('',(-0.0292,-0.0302,0.003));
#1196=CARTESIAN_POINT('',(-0.0292,-0.0302,0.016));
#1197=CARTESIAN_POINT('',(-0.0292,-0.0302,0.016));
#1198=CARTESIAN_POINT('',(-0.000199999999999997,-0.0302,0.016));
#1199=CARTESIAN_POINT('',(0.0292,-0.0302,0.016));
#1200=CARTESIAN_POINT('',(0.0292,-0.0302,0.016));
#1201=CARTESIAN_POINT('',(0.0292,-0.0302,0.003));
#1202=CARTESIAN_POINT('',(0.02025,-0.0302,0.003));
#1203=CARTESIAN_POINT('',(0.,0.0327,0.016));
#1204=CARTESIAN_POINT('',(0.,0.0327,0.0095));
#1205=CARTESIAN_POINT('',(0.004,0.0327,0.0095));
#1206=CARTESIAN_POINT('',(-0.004,0.0327,0.0095));
#1207=CARTESIAN_POINT('',(0.004,0.0327,0.0075));
#1208=CARTESIAN_POINT('',(0.006,0.0327,0.0075));
#1209=CARTESIAN_POINT('',(0.006,0.0327,0.016));
#1210=CARTESIAN_POINT('',(0.006,0.0327,0.016));
#1211=CARTESIAN_POINT('',(0.,0.0327,0.016));
#1212=CARTESIAN_POINT('',(-0.006,0.0327,0.016));
#1213=CARTESIAN_POINT('',(-0.006,0.0327,0.016));
#1214=CARTESIAN_POINT('',(-0.006,0.0327,0.0075));
#1215=CARTESIAN_POINT('',(-0.004,0.0327,0.0075));
#1216=CARTESIAN_POINT('',(0.,0.,0.003));
#1217=CARTESIAN_POINT('',(0.0073,-0.0112,0.003));
#1218=CARTESIAN_POINT('',(0.0073,0.0078,0.003));
#1219=CARTESIAN_POINT('',(0.0093,0.0078,0.003));
#1220=CARTESIAN_POINT('',(0.0113,0.0078,0.003));
#1221=CARTESIAN_POINT('',(0.0113,-0.0112,0.003));
#1222=CARTESIAN_POINT('',(0.0292,0.,0.003));
#1223=CARTESIAN_POINT('',(0.0292,0.0302,0.003));
#1224=CARTESIAN_POINT('',(0.0176,0.0302,0.003));
#1225=CARTESIAN_POINT('',(0.006,0.0302,0.003));
#1226=CARTESIAN_POINT('',(0.006,0.03145,0.003));
#1227=CARTESIAN_POINT('',(0.006,0.0327,0.003));
#1228=CARTESIAN_POINT('',(0.,0.0327,0.003));
#1229=CARTESIAN_POINT('',(-0.006,0.0327,0.003));
#1230=CARTESIAN_POINT('',(-0.006,0.03145,0.003));
#1231=CARTESIAN_POINT('',(-0.006,0.0302,0.003));
#1232=CARTESIAN_POINT('',(0.0176,0.0302,0.003));
#1233=CARTESIAN_POINT('',(-0.0292,0.0302,0.003));
#1234=CARTESIAN_POINT('',(-0.0292,0.,0.003));
#1235=CARTESIAN_POINT('',(-0.0117,-0.0112,0.003));
#1236=CARTESIAN_POINT('',(-0.0117,0.0078,0.003));
#1237=CARTESIAN_POINT('',(-0.0097,0.0078,0.003));
#1238=CARTESIAN_POINT('',(-0.0077,0.0078,0.003));
#1239=CARTESIAN_POINT('',(-0.0077,-0.0112,0.003));
#1240=CARTESIAN_POINT('',(0.,0.,0.));
#1241=CARTESIAN_POINT('',(-0.0322,-0.0332,0.));
#1242=CARTESIAN_POINT('',(-0.02935,-0.0332,0.));
#1243=CARTESIAN_POINT('',(0.0322,-0.0332,0.));
#1244=CARTESIAN_POINT('',(0.03505,-0.0332,0.));
#1245=CARTESIAN_POINT('',(0.0322,0.0332,0.));
#1246=CARTESIAN_POINT('',(0.03505,0.0332,0.));
#1247=CARTESIAN_POINT('',(-0.0322,0.0332,0.));
#1248=CARTESIAN_POINT('',(-0.02935,0.0332,0.));
#1249=CARTESIAN_POINT('',(-0.0362,0.,0.));
#1250=CARTESIAN_POINT('',(-0.0362,0.0347,0.));
#1251=CARTESIAN_POINT('',(-0.0362,-0.0347,0.));
#1252=CARTESIAN_POINT('',(-0.0337,0.0347,0.));
#1253=CARTESIAN_POINT('',(-0.0337,0.0372,0.));
#1254=CARTESIAN_POINT('',(0.,0.0372,0.));
#1255=CARTESIAN_POINT('',(0.0337,0.0372,0.));
#1256=CARTESIAN_POINT('',(0.0337,0.0347,0.));
#1257=CARTESIAN_POINT('',(0.0362,0.0347,0.));
#1258=CARTESIAN_POINT('',(0.0362,0.,0.));
#1259=CARTESIAN_POINT('',(0.0362,-0.0347,0.));
#1260=CARTESIAN_POINT('',(0.0337,-0.0347,0.));
#1261=CARTESIAN_POINT('',(0.0337,-0.0372,0.));
#1262=CARTESIAN_POINT('',(0.,-0.0372,0.));
#1263=CARTESIAN_POINT('',(-0.0337,-0.0372,0.));
#1264=CARTESIAN_POINT('',(-0.0337,-0.0347,0.));
#1265=CARTESIAN_POINT('',(0.0292,0.,0.016));
#1266=CARTESIAN_POINT('',(0.0292,0.0302,0.016));
#1267=CARTESIAN_POINT('',(0.0292,0.0302,0.016));
#1268=CARTESIAN_POINT('',(0.0292,0.,0.016));
#1269=CARTESIAN_POINT('',(-0.0176,0.0302,0.016));
#1270=CARTESIAN_POINT('',(-0.006,0.0302,0.016));
#1271=CARTESIAN_POINT('',(-0.006,0.0302,0.016));
#1272=CARTESIAN_POINT('',(-0.0176,0.0302,0.016));
#1273=CARTESIAN_POINT('',(-0.0292,0.0302,0.016));
#1274=CARTESIAN_POINT('',(-0.0292,0.0302,0.016));
#1275=CARTESIAN_POINT('',(0.0176,0.0302,0.016));
#1276=CARTESIAN_POINT('',(0.0176,0.0302,0.016));
#1277=CARTESIAN_POINT('',(0.006,0.0302,0.016));
#1278=CARTESIAN_POINT('',(0.006,0.0302,0.016));
#1279=CARTESIAN_POINT('',(-0.0292,0.,0.016));
#1280=CARTESIAN_POINT('',(-0.0292,0.,0.016));
#1281=CARTESIAN_POINT('',(-0.006,0.03145,0.016));
#1282=CARTESIAN_POINT('',(-0.006,0.0372,0.007));
#1283=CARTESIAN_POINT('',(-0.006,0.0372,0.0075));
#1284=CARTESIAN_POINT('',(-0.006,0.0372,0.0065));
#1285=CARTESIAN_POINT('',(-0.006,0.03145,0.0075));
#1286=CARTESIAN_POINT('',(-0.006,0.03145,0.016));
#1287=CARTESIAN_POINT('',(-0.006,0.0327,0.016));
#1288=CARTESIAN_POINT('',(-0.006,0.0327,0.0065));
#1289=CARTESIAN_POINT('',(-0.006,0.0372,0.0065));
#1290=CARTESIAN_POINT('',(0.,0.0327,0.016));
#1291=CARTESIAN_POINT('',(0.006,0.0327,0.016));
#1292=CARTESIAN_POINT('',(0.006,0.0327,0.0065));
#1293=CARTESIAN_POINT('',(0.004,0.0327,0.0065));
#1294=CARTESIAN_POINT('',(0.004,0.0327,0.0045));
#1295=CARTESIAN_POINT('',(0.,0.0327,0.0045));
#1296=CARTESIAN_POINT('',(-0.004,0.0327,0.0045));
#1297=CARTESIAN_POINT('',(-0.004,0.0327,0.0065));
#1298=CARTESIAN_POINT('',(0.006,0.03145,0.016));
#1299=CARTESIAN_POINT('',(0.006,0.0372,0.0075));
#1300=CARTESIAN_POINT('',(0.006,0.0372,0.0075));
#1301=CARTESIAN_POINT('',(0.006,0.0372,0.007));
#1302=CARTESIAN_POINT('',(0.006,0.0372,0.0065));
#1303=CARTESIAN_POINT('',(0.006,0.03145,0.0065));
#1304=CARTESIAN_POINT('',(0.006,0.03145,0.016));
#1305=CARTESIAN_POINT('',(0.0362,0.,0.016));
#1306=CARTESIAN_POINT('',(0.0362,0.0347,0.016));
#1307=CARTESIAN_POINT('',(0.0362,0.0347,0.016));
#1308=CARTESIAN_POINT('',(0.0362,0.,0.016));
#1309=CARTESIAN_POINT('',(0.0362,-0.0347,0.016));
#1310=CARTESIAN_POINT('',(0.0362,-0.0347,0.016));
#1311=CARTESIAN_POINT('',(0.,0.0372,0.016));
#1312=CARTESIAN_POINT('',(0.003,0.0372,0.0045));
#1313=CARTESIAN_POINT('',(0.004,0.0372,0.0045));
#1314=CARTESIAN_POINT('',(-0.004,0.0372,0.0045));
#1315=CARTESIAN_POINT('',(0.004,0.0372,0.0065));
#1316=CARTESIAN_POINT('',(0.004,0.0372,0.0075));
#1317=CARTESIAN_POINT('',(0.004,0.0372,0.0095));
#1318=CARTESIAN_POINT('',(-4.33680868994202E-19,0.0372,0.0095));
#1319=CARTESIAN_POINT('',(-0.004,0.0372,0.0095));
#1320=CARTESIAN_POINT('',(-0.004,0.0372,0.0075));
#1321=CARTESIAN_POINT('',(-0.004,0.0372,0.0065));
#1322=CARTESIAN_POINT('',(-0.0337,0.0372,0.016));
#1323=CARTESIAN_POINT('',(-0.0337,0.0372,0.016));
#1324=CARTESIAN_POINT('',(0.,0.0372,0.016));
#1325=CARTESIAN_POINT('',(0.0337,0.0372,0.016));
#1326=CARTESIAN_POINT('',(0.0337,0.0372,0.));
#1327=CARTESIAN_POINT('',(-0.0362,0.,0.016));
#1328=CARTESIAN_POINT('',(-0.0362,0.,0.016));
#1329=CARTESIAN_POINT('',(-0.0362,0.0347,0.016));
#1330=CARTESIAN_POINT('',(-0.0362,-0.0347,0.016));
#1331=CARTESIAN_POINT('',(-0.0362,0.0347,0.016));
#1332=CARTESIAN_POINT('',(-0.0362,-0.0347,0.016));
#1333=CARTESIAN_POINT('',(-0.0322,-0.0332,0.016));
#1334=CARTESIAN_POINT('',(-0.0322,-0.0332,0.0035));
#1335=CARTESIAN_POINT('',(-0.0307,-0.0332,0.0035));
#1336=CARTESIAN_POINT('',(-0.0322,-0.0332,0.016));
#1337=CARTESIAN_POINT('',(-0.0307,-0.0332,0.016));
#1338=CARTESIAN_POINT('',(0.0322,-0.0332,0.016));
#1339=CARTESIAN_POINT('',(0.0322,-0.0332,0.0035));
#1340=CARTESIAN_POINT('',(0.0337,-0.0332,0.0035));
#1341=CARTESIAN_POINT('',(0.0322,-0.0332,0.016));
#1342=CARTESIAN_POINT('',(0.0337,-0.0332,0.016));
#1343=CARTESIAN_POINT('',(0.0322,0.0332,0.016));
#1344=CARTESIAN_POINT('',(0.0322,0.0332,0.0035));
#1345=CARTESIAN_POINT('',(0.0337,0.0332,0.0035));
#1346=CARTESIAN_POINT('',(0.0322,0.0332,0.016));
#1347=CARTESIAN_POINT('',(0.0337,0.0332,0.016));
#1348=CARTESIAN_POINT('',(-0.0322,0.0332,0.016));
#1349=CARTESIAN_POINT('',(-0.0322,0.0332,0.0035));
#1350=CARTESIAN_POINT('',(-0.0307,0.0332,0.0035));
#1351=CARTESIAN_POINT('',(-0.0322,0.0332,0.016));
#1352=CARTESIAN_POINT('',(-0.0307,0.0332,0.016));
#1353=CARTESIAN_POINT('',(0.,-0.0372,0.016));
#1354=CARTESIAN_POINT('',(0.0337,-0.0372,0.016));
#1355=CARTESIAN_POINT('',(0.0337,-0.0372,0.016));
#1356=CARTESIAN_POINT('',(0.,-0.0372,0.016));
#1357=CARTESIAN_POINT('',(-0.0337,-0.0372,0.016));
#1358=CARTESIAN_POINT('',(-0.0337,-0.0372,0.));
#1359=CARTESIAN_POINT('',(0.,0.,0.016));
#1360=CARTESIAN_POINT('',(-0.0337,0.0347,0.016));
#1361=CARTESIAN_POINT('',(-0.0337,-0.0347,0.016));
#1362=CARTESIAN_POINT('',(0.0337,-0.0347,0.016));
#1363=CARTESIAN_POINT('',(0.0337,0.0347,0.016));
#1364=CARTESIAN_POINT('',(-0.0337,0.0347,0.016));
#1365=CARTESIAN_POINT('',(0.0337,0.0347,0.016));
#1366=CARTESIAN_POINT('',(0.0337,-0.0347,0.016));
#1367=CARTESIAN_POINT('',(-0.0337,-0.0347,0.016));
#1368=CARTESIAN_POINT('',(0.003,0.0291,0.0045));
#1369=CARTESIAN_POINT('',(-0.004,0.0327,0.0045));
#1370=CARTESIAN_POINT('',(0.004,0.0291,0.0045));
#1371=CARTESIAN_POINT('',(-4.33680868994202E-19,0.0291,0.0095));
#1372=CARTESIAN_POINT('',(-0.004,0.0291,0.0095));
#1373=CARTESIAN_POINT('',(0.004,0.0327,0.0095));
#1374=CARTESIAN_POINT('',(0.,0.,0.00985));
#1375=CARTESIAN_POINT('',(-0.0077,-0.0112,0.00985));
#1376=CARTESIAN_POINT('',(-0.0077,0.0078,0.00985));
#1377=CARTESIAN_POINT('',(-0.0097,0.0078,0.00985));
#1378=CARTESIAN_POINT('',(-0.0117,0.0078,0.00985));
#1379=CARTESIAN_POINT('',(-0.0117,-0.0112,0.00985));
#1380=CARTESIAN_POINT('',(-0.0117,-0.0112,0.00985));
#1381=CARTESIAN_POINT('',(-0.0117,0.0078,0.00985));
#1382=CARTESIAN_POINT('',(-0.0097,0.0078,0.00985));
#1383=CARTESIAN_POINT('',(-0.0077,0.0078,0.00985));
#1384=CARTESIAN_POINT('',(-0.0077,-0.0112,0.00985));
#1385=CARTESIAN_POINT('',(0.,0.,0.00985));
#1386=CARTESIAN_POINT('',(0.0113,-0.0112,0.00985));
#1387=CARTESIAN_POINT('',(0.0113,0.0078,0.00985));
#1388=CARTESIAN_POINT('',(0.0093,0.0078,0.00985));
#1389=CARTESIAN_POINT('',(0.0073,0.0078,0.00985));
#1390=CARTESIAN_POINT('',(0.0073,-0.0112,0.00985));
#1391=CARTESIAN_POINT('',(0.0073,-0.0112,0.00985));
#1392=CARTESIAN_POINT('',(0.0073,0.0078,0.00985));
#1393=CARTESIAN_POINT('',(0.0093,0.0078,0.00985));
#1394=CARTESIAN_POINT('',(0.0113,0.0078,0.00985));
#1395=CARTESIAN_POINT('',(0.0113,-0.0112,0.00985));
#1396=CARTESIAN_POINT('',(-0.0322,0.0332,0.0035));
#1397=CARTESIAN_POINT('',(-0.0322,0.0332,0.0035));
#1398=CARTESIAN_POINT('',(-0.02935,0.0332,0.0035));
#1399=CARTESIAN_POINT('',(0.,0.,0.0035));
#1400=CARTESIAN_POINT('',(0.0322,0.0332,0.0035));
#1401=CARTESIAN_POINT('',(0.0322,0.0332,0.0035));
#1402=CARTESIAN_POINT('',(0.03505,0.0332,0.0035));
#1403=CARTESIAN_POINT('',(0.,0.,0.0035));
#1404=CARTESIAN_POINT('',(0.0322,-0.0332,0.0035));
#1405=CARTESIAN_POINT('',(0.0322,-0.0332,0.0035));
#1406=CARTESIAN_POINT('',(0.03505,-0.0332,0.0035));
#1407=CARTESIAN_POINT('',(0.,0.,0.0035));
#1408=CARTESIAN_POINT('',(-0.0322,-0.0332,0.0035));
#1409=CARTESIAN_POINT('',(-0.0322,-0.0332,0.0035));
#1410=CARTESIAN_POINT('',(-0.02935,-0.0332,0.0035));
#1411=CARTESIAN_POINT('',(0.,0.,0.0035));
#1412=CARTESIAN_POINT('',(-0.004,0.0291,0.0075));
#1413=CARTESIAN_POINT('',(0.004,0.03145,0.0075));
#1414=CARTESIAN_POINT('',(-0.004,0.03145,0.0065));
#1415=CARTESIAN_POINT('',(0.004,0.0291,0.0065));
#1416=MECHANICAL_DESIGN_GEOMETRIC_PRESENTATION_REPRESENTATION('',(#849),
#1417);
#1417=(
GEOMETRIC_REPRESENTATION_CONTEXT(3)
GLOBAL_UNCERTAINTY_ASSIGNED_CONTEXT((#1418))
GLOBAL_UNIT_ASSIGNED_CONTEXT((#1421,#1420,#1419))
REPRESENTATION_CONTEXT('Part 1','TOP_LEVEL_ASSEMBLY_PART')
);
#1418=UNCERTAINTY_MEASURE_WITH_UNIT(LENGTH_MEASURE(1.E-8),#1421,
'DISTANCE_ACCURACY_VALUE','Maximum Tolerance applied to model');
#1419=(
NAMED_UNIT(*)
SI_UNIT($,.STERADIAN.)
SOLID_ANGLE_UNIT()
);
#1420=(
NAMED_UNIT(*)
PLANE_ANGLE_UNIT()
SI_UNIT($,.RADIAN.)
);
#1421=(
LENGTH_UNIT()
NAMED_UNIT(*)
SI_UNIT($,.METRE.)
);
#1422=PRODUCT_DEFINITION_SHAPE('','',#1423);
#1423=PRODUCT_DEFINITION('','',#1425,#1424);
#1424=PRODUCT_DEFINITION_CONTEXT('',#1431,'design');
#1425=PRODUCT_DEFINITION_FORMATION_WITH_SPECIFIED_SOURCE('','',#1427,
 .NOT_KNOWN.);
#1426=PRODUCT_RELATED_PRODUCT_CATEGORY('','',(#1427));
#1427=PRODUCT('Part 1','Part 1','Part 1',(#1429));
#1428=PRODUCT_CATEGORY('','');
#1429=PRODUCT_CONTEXT('',#1431,'mechanical');
#1430=APPLICATION_PROTOCOL_DEFINITION('international standard',
'ap242_managed_model_based_3d_engineering',2020,#1431);
#1431=APPLICATION_CONTEXT('managed model based 3d engineering');
ENDSEC;
END-ISO-10303-21;
